<svg version="1.1" id="Layer_1" xmlns="http://www.w3.org/2000/svg" xmlns:xlink="http://www.w3.org/1999/xlink" x="0px" y="0px"
	 width="100%" viewBox="0 0 1024 1008" enable-background="new 0 0 1024 1008" xml:space="preserve">
<style>
	.animated-path {
		animation: pathWiggle 3s ease-in-out infinite;
		transform-origin: center;
	}
	.animated-path:nth-child(odd) {
		animation-delay: 0.5s;
	}
	.animated-path:nth-child(even) {
		animation-delay: 1s;
	}
	@keyframes pathWiggle {
		0%, 100% { 
			transform: translate(0, 0) rotate(0deg);
			opacity: 1;
		}
		25% { 
			transform: translate(1px, -1px) rotate(0.5deg);
			opacity: 0.95;
		}
		50% { 
			transform: translate(0, 0) rotate(0deg);
			opacity: 1;
		}
		75% { 
			transform: translate(-1px, 1px) rotate(-0.5deg);
			opacity: 0.95;
		}
	}
</style>
<path class="animated-path" fill="#000000" opacity="1.000000" stroke="none" 
	d="
M796.878174,586.428711 
	C794.972229,589.651733 796.214844,592.923340 795.809937,595.993469 
	C794.204895,608.164368 791.302002,619.812988 785.142456,630.635803 
	C782.681824,634.959167 782.672607,640.388855 778.670166,644.299622 
	C775.518188,647.379456 770.555725,648.024902 768.495056,652.383423 
	C768.086365,653.247925 766.745789,653.895508 766.712830,654.680054 
	C766.284241,664.877686 757.514893,666.058655 750.838501,669.405640 
	C749.026611,670.313965 747.338562,671.292908 745.828796,672.604980 
	C742.572266,675.435181 739.289062,677.781921 734.536316,677.847229 
	C732.312561,677.877625 730.210754,680.465027 727.883362,680.842102 
	C724.853088,681.333008 721.624939,680.987610 718.598450,680.006042 
	C715.514832,679.006042 714.007690,680.416565 713.008240,683.215820 
	C709.230164,693.797424 705.883545,704.584473 701.268494,714.794312 
	C698.948242,719.927368 697.307373,725.619324 693.529907,730.032043 
	C691.339539,732.590820 691.389954,735.732300 690.413269,738.620300 
	C687.845398,746.213501 681.989746,751.733704 677.662292,758.212585 
	C674.635010,762.744934 669.753845,766.565308 670.197144,773.692566 
	C670.443787,777.658813 666.844421,782.266357 664.108459,785.936340 
	C657.454224,794.861816 649.865173,803.030396 642.102112,811.018677 
	C641.255066,811.890320 640.341553,812.521423 639.112488,812.639893 
	C631.385681,813.385071 626.441650,817.724487 623.511780,824.690430 
	C623.324768,825.135010 623.010986,825.661072 622.611633,825.861694 
	C613.327881,830.527222 608.053772,841.238647 596.432495,842.698364 
	C593.467957,843.070740 590.012207,844.983032 587.526062,847.688599 
	C583.761169,851.785522 578.349243,853.105835 573.293091,853.834778 
	C562.558899,855.382080 552.554138,860.897278 541.217651,859.363892 
	C538.111694,858.943726 534.741638,860.137695 531.472961,860.496948 
	C524.776978,861.232971 518.025330,861.303223 511.324493,861.978210 
	C496.653351,863.455994 481.763702,865.072998 466.966919,862.125610 
	C465.112396,861.756165 464.199463,860.612061 462.971741,859.510559 
	C460.939758,857.687500 458.123505,857.477905 455.790253,856.620483 
	C448.892090,854.085632 440.335175,854.051392 435.184387,849.582214 
	C427.249207,842.697327 419.203552,836.688538 409.487091,832.861755 
	C408.038574,832.291260 406.764099,831.545898 406.275574,829.961609 
	C405.356720,826.981812 403.406036,825.206238 400.333099,824.598572 
	C395.005188,823.544922 391.730560,819.478638 387.736664,816.324768 
	C383.896942,813.292603 381.318604,810.149414 379.781189,805.300354 
	C378.593597,801.554688 373.736755,799.954834 370.340057,797.947632 
	C365.246490,794.937866 360.142090,792.509399 359.270050,785.813293 
	C359.177185,785.100159 358.483521,784.210083 357.825714,783.864502 
	C349.856110,779.677490 345.859833,771.024658 338.218658,766.484253 
	C337.521179,766.069763 336.380188,765.452026 336.389252,764.945618 
	C336.476624,760.058228 333.321442,757.693481 329.777588,755.157410 
	C326.820892,753.041443 325.226654,749.768311 324.446625,745.963379 
	C323.947296,743.527832 322.576752,741.034668 320.501862,739.265564 
	C319.714539,738.594177 318.617615,737.760925 318.960602,736.882385 
	C321.297546,730.895874 315.815247,728.245239 313.677429,724.202881 
	C312.893097,722.719788 311.829590,721.312195 311.857086,719.626831 
	C311.970245,712.684937 307.498840,707.596375 304.335052,702.179016 
	C302.816376,699.578552 299.412384,697.101990 295.028931,699.642456 
	C290.745148,702.125122 285.464294,699.838135 282.223022,698.080994 
	C278.116394,695.854675 274.111053,695.713196 270.027527,694.844055 
	C260.028503,692.715881 251.340988,688.196411 242.907272,682.346680 
	C237.529694,678.616760 235.463226,672.759216 230.956696,668.671204 
	C229.683746,667.516479 228.852448,665.555359 227.174911,664.901611 
	C223.562195,663.493835 221.976501,660.538940 220.405151,657.352478 
	C215.954788,648.327881 211.319717,639.394348 206.872726,630.368103 
	C204.433655,625.417480 201.678787,620.612671 202.641418,614.594421 
	C203.897095,606.744019 202.929337,598.740845 203.198425,590.828125 
	C203.584579,579.473083 205.527939,568.527771 207.125534,557.407349 
	C208.508820,547.778748 211.643280,538.530518 212.551102,528.842346 
	C212.730560,526.927185 213.429062,525.375000 215.863113,525.283752 
	C216.954727,525.242798 218.214386,524.744263 218.543091,523.387817 
	C220.610779,514.855652 226.519287,509.781616 233.969101,506.010284 
	C234.950043,505.513702 235.886475,504.553711 236.396057,503.575317 
	C237.680481,501.109222 239.118622,499.509613 242.264832,500.515808 
	C244.034805,501.081879 245.641953,500.258942 246.302200,498.456268 
	C246.993134,496.569794 245.760147,495.177429 244.406921,494.217316 
	C241.708847,492.303070 238.648132,491.555420 235.409180,492.615051 
	C231.950470,493.746582 229.461914,492.525787 227.929214,489.494598 
	C227.050262,487.756348 225.599625,486.653198 224.298981,485.441132 
	C220.334045,481.746246 217.628510,477.661285 218.723709,471.921936 
	C219.308990,468.854828 217.454758,466.061249 216.072174,464.107910 
	C212.613174,459.220947 214.788788,454.669250 215.947906,450.285217 
	C216.985275,446.361664 215.830887,446.216339 212.563400,446.065399 
	C206.833069,445.800751 200.933884,445.648010 195.461594,444.148590 
	C186.657883,441.736328 184.204224,433.920898 182.844131,426.037476 
	C182.131088,421.904633 181.474915,418.093109 184.116653,413.426697 
	C188.142487,406.315430 189.588043,397.778564 192.531540,389.999268 
	C193.484070,387.481842 196.257370,385.654572 197.215393,383.137665 
	C198.899979,378.711914 200.847717,374.701721 200.690414,369.192230 
	C200.524124,363.367981 202.619080,356.357727 207.052765,351.237427 
	C209.473892,348.441284 210.207840,345.685699 209.010605,342.080811 
	C207.300278,336.930969 210.619614,332.615143 212.555725,328.439148 
	C216.498581,319.934845 216.262390,310.647552 218.695663,301.902679 
	C221.290878,292.575867 221.951645,282.708649 225.604691,273.736572 
	C227.138290,269.969971 230.494308,266.722778 230.644043,262.441681 
	C230.961121,253.376358 236.799576,245.709854 236.819931,236.620789 
	C236.822083,235.658478 236.956619,234.322296 237.573273,233.794220 
	C242.942154,229.196335 244.346512,220.599121 250.501526,217.830948 
	C257.337891,214.756363 257.349762,207.406174 262.490814,203.626999 
	C264.224823,202.352325 265.665161,200.392639 267.753601,199.360275 
	C269.562408,198.466064 271.409454,197.527939 272.567688,195.876556 
	C277.413177,188.968140 284.702118,184.506699 290.120117,178.138412 
	C292.920990,174.846268 297.427094,172.905182 300.163635,169.857773 
	C303.661438,165.962616 309.179291,164.075882 311.148285,158.820633 
	C311.747955,157.220047 312.986053,156.185181 314.408752,156.031876 
	C320.790924,155.344101 324.257660,150.029160 329.171631,147.039154 
	C339.986237,140.458862 351.330078,135.965759 364.353027,137.902100 
	C365.001160,137.998489 365.700104,138.173660 366.311646,138.033707 
	C377.988434,135.361465 389.450806,138.902390 400.792542,140.189880 
	C413.162903,141.594147 424.944763,146.886429 436.095917,152.921432 
	C439.808807,154.930832 443.151123,157.713394 447.834259,157.879822 
	C449.648621,157.944290 451.384155,159.834518 452.976837,161.378448 
	C458.129456,166.373184 463.116364,171.897003 470.864990,172.814789 
	C473.746796,173.156143 474.813416,175.653641 476.884918,177.103729 
	C478.847107,177.252686 480.139374,175.780212 481.595642,174.776947 
	C484.538177,172.749741 486.834473,169.682297 490.859253,169.437866 
	C491.517303,169.397888 492.342957,168.555115 492.712402,167.877029 
	C496.404999,161.100525 503.043549,159.279953 509.769958,157.527115 
	C511.571411,157.057678 513.544800,156.070129 514.164062,154.476761 
	C515.573425,150.849945 518.744629,150.418060 521.695557,149.608688 
	C525.091187,148.677307 528.388184,147.903366 530.461365,144.560867 
	C531.470459,142.934021 533.457825,142.232437 535.345398,142.754364 
	C539.787720,143.982605 543.300781,141.741760 546.177307,139.247696 
	C551.610168,134.537170 557.421875,131.908020 564.650635,133.186218 
	C568.054626,133.788116 571.160400,132.565109 574.412354,131.991806 
	C582.288757,130.603241 589.991516,129.047943 597.465271,125.839157 
	C600.777588,124.417053 605.451416,125.015739 609.189209,125.958206 
	C619.118652,128.461838 629.195923,127.676300 639.212036,128.210815 
	C640.345459,128.271317 641.705078,127.518822 642.577209,128.457840 
	C648.333069,134.655457 656.414490,134.033234 663.674744,135.831787 
	C664.617188,136.065247 665.504822,136.586609 666.367126,137.065887 
	C673.162781,140.842896 679.748474,145.018707 687.460388,146.890915 
	C690.404663,147.605667 691.828369,150.422806 693.499817,152.648178 
	C696.625366,156.809341 700.279907,160.241776 704.726929,163.010254 
	C710.384094,166.532074 715.244873,171.361420 718.404114,176.991272 
	C720.283875,180.341125 721.429749,184.069580 724.090149,187.183701 
	C727.849548,191.584290 729.251221,197.525696 735.158630,200.698242 
	C741.248352,203.968750 741.727051,211.542435 744.197449,217.371170 
	C749.164185,229.089905 752.669189,241.487595 758.326050,252.832932 
	C761.924133,260.049133 761.769592,268.624878 767.450867,274.977539 
	C769.529114,277.301422 767.826477,281.057556 769.029236,284.118896 
	C770.006104,286.605438 773.169922,288.130585 772.571228,291.038330 
	C771.132690,298.024994 775.349365,303.678467 776.847595,309.926758 
	C778.383301,316.331360 780.392517,322.655243 781.613464,329.146942 
	C782.595825,334.369781 785.225647,338.645447 788.399963,342.719116 
	C789.406860,344.011292 790.846008,345.064575 791.031433,346.871948 
	C792.003479,356.347076 797.568787,363.498138 803.173462,370.576569 
	C804.879517,372.731232 804.437500,375.474670 806.239258,377.765472 
	C810.299011,382.927277 816.200928,386.066895 820.036438,391.570526 
	C821.839233,394.157379 822.615417,396.285950 821.596375,398.620392 
	C819.778503,402.784668 820.587769,406.413666 822.905457,409.820709 
	C824.701355,412.460815 824.727478,415.621185 822.858948,417.199005 
	C817.776428,421.490723 817.874756,428.712738 813.997253,432.833557 
	C809.415833,437.702393 807.030090,444.787750 799.097778,447.075531 
	C793.778687,448.609589 789.371277,453.420349 783.358826,454.325317 
	C782.060242,454.520752 780.735901,455.213440 779.503296,455.055237 
	C775.498718,454.541321 773.423157,456.729858 772.998840,460.126617 
	C772.093445,467.374146 768.264526,473.850311 768.516846,481.589691 
	C768.628113,485.003693 767.244141,488.970520 767.228271,492.874878 
	C767.207825,497.885803 769.748779,502.589905 774.409668,504.154358 
	C775.607056,504.556274 776.586426,504.888275 777.110718,506.009033 
	C780.799438,513.894409 787.559570,520.330750 789.582153,528.801086 
	C791.603882,537.267212 796.798462,545.253540 794.542358,554.575439 
	C793.862976,557.382324 796.864258,558.805481 797.210938,561.684509 
	C797.606201,564.966736 797.611816,568.614563 799.423035,572.029236 
	C800.550110,574.154236 798.805176,577.845398 798.234802,580.811707 
	C797.892883,582.590454 797.330566,584.326843 796.878174,586.428711 
M696.653503,677.161804 
	C698.614685,669.121521 701.122803,661.185120 700.040527,652.681091 
	C699.802124,650.807861 700.073059,648.263123 701.190125,646.939758 
	C704.341125,643.206604 705.642517,639.054688 705.799072,634.331970 
	C705.875366,632.030640 707.445557,630.840271 709.394348,629.986389 
	C711.464172,629.079407 712.331726,630.757507 713.593262,631.758972 
	C718.409912,635.582703 720.344299,639.878845 718.625000,646.399597 
	C717.521362,650.585266 717.466125,655.236389 716.483276,659.598328 
	C715.746399,662.868530 717.165161,664.061523 720.123474,663.640198 
	C724.637268,662.997375 729.144958,662.240234 733.596130,661.262390 
	C735.602783,660.821655 737.842102,660.935364 739.373230,658.821411 
	C744.652283,651.532776 751.834717,645.889465 756.999939,638.446045 
	C759.229980,635.232483 762.488708,632.190674 764.385803,629.273193 
	C768.966431,622.228760 771.402344,613.706482 773.022705,605.230591 
	C774.156128,599.301575 773.621765,593.075073 774.975098,587.316650 
	C776.220215,582.018982 778.105835,577.080200 776.949219,571.487244 
	C776.215820,567.940857 775.954041,564.275085 775.740234,560.647522 
	C775.240234,552.167297 776.278320,543.370911 769.935669,536.258118 
	C768.657471,534.824707 769.014648,532.790955 768.680969,531.005676 
	C768.080505,527.792236 768.772034,523.761658 765.890930,521.696594 
	C761.239563,518.362793 756.760010,515.180359 752.964417,510.649292 
	C747.138306,503.694427 739.234375,507.114471 732.237976,507.948090 
	C731.693420,513.494019 730.294556,518.816345 730.893677,523.903320 
	C731.638000,530.222717 729.805603,535.598022 727.849121,541.253967 
	C726.164307,546.124878 722.200623,544.766174 719.148682,544.531555 
	C716.262329,544.309570 715.018860,541.826355 714.219177,538.646423 
	C712.202209,530.625244 718.514526,523.978149 717.252991,516.227539 
	C717.190857,515.845337 717.721069,515.375549 717.953979,514.935120 
	C723.260925,504.901428 721.647461,499.559631 711.503784,494.375183 
	C710.033203,493.623566 708.862183,493.035828 708.756775,491.302368 
	C708.465515,486.512390 707.200745,481.521515 708.106750,476.965149 
	C711.530579,459.745850 705.239441,443.891937 702.124878,427.581879 
	C701.658997,425.142273 700.536255,422.795013 697.927673,422.610718 
	C693.782104,422.317749 690.513733,420.434082 686.935669,418.631653 
	C683.851562,417.078094 681.580261,414.173218 678.030151,413.528046 
	C672.180420,412.464935 668.351868,408.108032 664.156494,404.561951 
	C659.522705,400.645325 657.482605,393.760681 650.371460,392.625549 
	C649.251404,392.446747 649.052124,391.343964 648.636414,390.407532 
	C647.900391,388.749725 647.256653,386.779175 645.948914,385.691010 
	C637.411804,378.587006 636.135681,367.338623 630.526123,358.514526 
	C627.603638,353.917236 625.984009,348.068787 622.547852,343.451324 
	C620.916443,341.259094 619.741943,339.170044 619.379211,336.355408 
	C619.078857,334.024841 619.077576,331.122437 615.955566,329.128876 
	C615.450256,335.396545 619.289490,340.412750 618.295837,345.832550 
	C617.270874,351.423584 619.543762,356.226471 620.781433,361.327271 
	C622.893127,370.029266 617.590149,383.586609 610.186035,388.740234 
	C608.601624,389.843079 606.886475,390.331268 604.997681,389.613953 
	C594.124878,385.484833 584.313477,379.235931 574.095886,373.825348 
	C571.754944,372.585785 570.071533,369.876648 567.641663,368.108093 
	C561.498108,363.636505 554.923950,358.803070 551.824707,351.945557 
	C549.238403,346.222778 544.905579,341.593018 542.956055,335.735809 
	C541.737732,332.075470 538.139404,330.180847 536.999207,326.953705 
	C535.309631,322.171844 534.099854,317.125519 533.075439,312.157501 
	C530.488464,299.611877 532.565735,286.304840 527.013306,274.188843 
	C526.696411,273.497284 527.176514,272.462036 526.909546,271.722534 
	C524.985535,266.393402 527.510986,259.601685 520.079163,255.946396 
	C516.652771,254.261169 514.362976,252.680557 510.823547,254.626846 
	C509.222382,255.507294 507.453217,254.662827 505.971802,254.182739 
	C500.983307,252.566086 498.061890,254.804123 495.793945,258.896912 
	C494.041565,262.059265 492.087006,265.076782 491.326385,268.725494 
	C490.678314,271.834473 489.203278,274.671112 487.601685,277.419342 
	C486.895020,278.631897 486.149872,279.816559 484.508606,279.213806 
	C480.070282,277.583832 476.496460,274.438538 471.419586,273.494568 
	C468.519623,272.955414 465.981079,268.128021 463.287018,265.305237 
	C459.348419,261.178497 455.279388,259.662231 450.259705,260.392273 
	C446.244720,260.976166 442.443542,261.071716 438.429077,260.387634 
	C434.555023,259.727539 430.166779,259.216370 426.844360,261.626221 
	C423.639771,263.950592 420.104462,265.442291 416.653961,267.096283 
	C413.711548,268.506714 411.635010,270.046082 411.144684,273.474365 
	C410.609497,277.216614 408.602905,280.076447 404.756317,280.956818 
	C402.417267,281.492126 401.409576,282.704468 401.082703,284.962891 
	C400.369781,289.888794 398.764893,294.813660 398.883759,299.705963 
	C399.155457,310.889771 393.391846,322.528992 401.035980,333.219086 
	C402.628265,335.445831 399.973053,338.471405 402.142761,340.314667 
	C404.861938,342.624756 406.130524,345.809601 407.083038,348.827087 
	C408.442352,353.133240 410.491272,355.851166 416.164124,355.831726 
	C413.654541,359.617401 416.565948,359.540894 418.461212,360.867889 
	C421.942261,363.305084 425.051880,366.322266 425.241638,371.224792 
	C425.551636,379.234131 416.820618,390.057770 407.928894,391.354218 
	C396.657257,392.997620 385.614685,392.218567 375.592346,385.740631 
	C373.268280,384.238495 370.574921,382.473755 367.718781,382.976074 
	C361.822815,384.013031 357.080872,382.054932 352.364349,378.801514 
	C348.731445,376.295593 346.220825,377.760376 346.432526,382.185669 
	C346.616272,386.027130 346.621246,389.815063 345.983978,393.585968 
	C345.292633,397.676788 346.626160,401.166779 347.980072,405.021606 
	C350.978699,413.559570 350.633728,420.720825 342.185608,422.222076 
	C339.324005,422.730621 336.925507,423.815674 334.353638,424.987305 
	C332.161316,425.986053 330.450775,428.172363 327.695770,427.994263 
	C324.264557,427.772369 323.344421,429.530457 324.004761,432.693909 
	C324.403015,434.601685 323.803131,436.163361 321.961151,437.352844 
	C318.701080,439.458069 318.189880,442.933075 318.011902,446.466888 
	C317.658936,453.476257 317.590027,460.226318 314.367920,467.077362 
	C310.428802,475.452850 306.582611,484.493866 310.587189,494.408844 
	C311.636719,497.007446 312.438660,498.434570 315.540710,498.842651 
	C319.510284,499.364838 323.549194,498.755341 327.348358,499.444183 
	C339.664795,501.677338 346.566040,498.510712 351.905579,487.306580 
	C352.624756,485.797577 353.226654,484.012329 355.207489,483.947693 
	C357.666473,483.867462 358.878662,481.980164 360.662384,480.867828 
	C365.288147,477.983154 370.045898,475.214386 375.027924,473.031403 
	C378.159973,471.659058 382.388519,473.493195 385.173218,472.219513 
	C393.292236,468.506134 402.362030,469.789001 410.668243,466.196472 
	C414.569733,464.509033 420.654816,465.809845 425.834106,465.021973 
	C431.546356,464.153015 436.988892,467.312988 442.737366,468.056152 
	C449.047058,468.871796 455.373138,467.749908 461.820496,469.905426 
	C466.582764,471.497589 470.620728,474.414825 475.352844,475.681244 
	C483.817566,477.946564 490.764160,481.350281 490.353241,491.829620 
	C490.258728,494.240295 490.653381,496.670166 490.814117,498.965027 
	C495.075470,501.093231 497.821503,497.287140 501.301514,496.637756 
	C508.296417,495.332428 515.137329,499.282318 522.015198,496.513641 
	C523.328003,495.985168 525.248962,496.040741 526.136597,497.502228 
	C529.148193,502.460968 534.734863,501.693634 539.631775,504.245789 
	C539.830872,495.613342 546.242981,491.566010 551.024963,486.435669 
	C555.684143,481.437073 561.651489,478.332825 568.336426,477.969635 
	C575.252808,477.593903 582.336365,479.345459 588.808289,475.478668 
	C593.180603,472.866333 598.222900,473.606506 602.871277,473.220795 
	C611.723206,472.486328 620.359436,468.820953 629.638000,472.035950 
	C634.987671,473.889587 641.026001,474.166016 646.778687,474.337799 
	C653.276855,474.531738 658.880981,476.942688 664.805786,479.119446 
	C670.080139,481.057251 674.107666,484.889709 679.250122,486.828949 
	C680.516602,487.306549 680.743591,488.621552 680.753174,490.167572 
	C680.795410,496.932434 682.582214,498.329041 688.809204,495.995850 
	C692.862000,494.477325 696.248901,496.531128 699.804993,497.248260 
	C702.384583,497.768494 702.119873,500.412720 700.432434,502.015808 
	C696.235046,506.003479 692.304321,510.643707 687.352783,513.350281 
	C683.257507,515.588806 682.501770,518.220398 682.405090,522.023865 
	C682.286865,526.670349 683.647400,532.262695 681.547485,535.744751 
	C678.108765,541.446960 676.833008,547.676453 674.453735,553.591431 
	C671.980103,559.740967 670.254272,565.990417 664.689026,570.613159 
	C660.281494,574.274170 657.147827,579.393555 650.652771,580.002075 
	C648.503784,580.203430 646.821655,581.801392 645.307129,583.459961 
	C641.404419,587.733826 635.596252,589.416748 630.660522,589.793457 
	C624.708435,590.247925 618.325500,591.397217 612.458801,589.882019 
	C608.641235,588.896057 605.720093,593.230591 602.567200,590.847778 
	C596.286987,586.101562 586.968079,590.446716 581.560181,583.520203 
	C571.895325,582.854858 566.626648,574.987671 559.785828,569.843079 
	C557.738586,568.303406 555.690369,566.130005 553.955688,563.973999 
	C547.889954,556.435059 546.860840,547.101318 546.504089,538.158264 
	C546.188354,530.242981 543.141541,524.586975 537.813354,519.480225 
	C536.284912,518.015259 534.778931,517.474670 532.488220,517.639221 
	C527.837830,517.973450 522.694885,517.774292 519.015259,515.102356 
	C515.732422,512.718628 512.917603,513.259949 509.758972,513.721130 
	C507.963379,513.983337 505.971802,514.035767 504.418579,514.614014 
	C500.628876,516.024780 495.803284,516.213135 493.169525,518.584412 
	C489.711548,521.697754 486.553375,526.681824 486.028168,531.183594 
	C485.040070,539.653137 481.937836,547.629639 481.100494,555.939270 
	C480.386047,563.029358 472.676605,565.899414 472.570129,572.862061 
	C472.565704,573.152832 471.821564,573.648621 471.391449,573.684692 
	C461.956085,574.476868 459.178558,584.721313 451.074097,587.817566 
	C445.159943,590.077026 439.526398,593.278931 433.499908,595.440674 
	C431.549164,596.140381 429.368134,595.802368 427.691040,594.779602 
	C425.223419,593.274841 422.613495,593.106689 419.981384,593.305786 
	C411.746765,593.928528 403.415680,595.503113 396.146088,589.723938 
	C395.790253,589.441101 395.204071,589.387695 394.714508,589.342224 
	C381.142303,588.083069 373.468964,577.204590 364.145325,569.550598 
	C360.356140,566.439941 358.772949,559.830994 355.892548,554.917114 
	C353.004883,549.991028 351.742859,544.184082 348.334473,539.087280 
	C346.282257,536.018433 342.234680,532.460999 343.995789,527.092957 
	C344.607635,525.228149 342.610229,522.748779 339.715668,522.500793 
	C334.436676,522.048523 329.078339,520.736938 323.908630,521.275879 
	C318.295807,521.861023 313.611481,520.638733 308.594238,518.497742 
	C304.843231,516.897034 304.045807,514.828186 304.401459,511.220428 
	C304.747955,507.705688 306.580811,504.336761 305.796967,500.491333 
	C298.310913,501.744568 290.840088,500.668457 283.907104,503.786316 
	C277.943878,506.468048 275.533905,511.317993 277.428040,517.490112 
	C277.898712,519.023804 279.024475,520.501526 277.759796,522.397949 
	C275.324371,521.857910 273.282593,520.571045 271.437347,518.879761 
	C266.950073,514.766968 263.194092,514.423462 259.167816,518.780212 
	C253.942474,524.434448 246.593063,526.555237 240.584625,530.923279 
	C232.943039,536.478638 226.592163,542.354431 226.361145,552.481628 
	C226.231186,558.179199 226.015656,563.729248 222.535980,568.690979 
	C221.573715,570.063110 221.870804,572.256042 221.298279,573.975220 
	C219.437683,579.562256 222.087845,585.135437 221.217438,590.701721 
	C220.181259,597.328308 217.233551,604.280212 224.440750,609.506409 
	C224.653625,609.660828 224.792755,610.131775 224.737289,610.409363 
	C223.839325,614.902649 226.307358,619.040039 225.548279,623.760254 
	C224.012390,633.310974 230.921951,640.355408 235.400528,647.514038 
	C240.821198,656.178650 246.303467,665.790344 257.626526,668.781860 
	C258.633514,669.047913 259.692566,670.073181 260.219879,671.026550 
	C262.100616,674.427002 264.977875,673.984802 268.259674,674.128906 
	C273.170837,674.344666 279.721863,671.522522 281.819733,679.439026 
	C282.100037,680.496765 283.358795,680.682190 284.369415,680.621826 
	C290.056396,680.281616 295.740082,679.886841 301.249847,679.522217 
	C301.734589,677.507507 301.277161,676.351685 300.352112,675.653992 
	C295.868835,672.272522 296.552155,667.494019 296.801514,662.866394 
	C296.964325,659.845032 301.701904,653.991455 304.004272,654.314514 
	C307.343353,654.783142 308.737549,657.421509 309.471344,660.542908 
	C309.719940,661.600586 310.541595,662.605225 311.309021,663.444153 
	C313.733398,666.094421 314.458160,669.364685 315.611237,672.651550 
	C317.017303,676.659546 315.906525,681.443054 318.960175,684.720886 
	C321.426910,687.368652 322.562805,690.569397 322.626434,693.736206 
	C322.711090,697.947876 324.989288,700.285522 327.869232,702.419128 
	C328.935272,703.208862 330.479675,703.666138 330.759064,704.993591 
	C332.439178,712.976257 338.359802,719.388733 339.087524,727.710083 
	C339.245209,729.513611 338.907166,732.004028 339.934418,732.974487 
	C343.981720,736.797913 346.949524,741.332214 350.116791,745.827148 
	C355.727509,753.789734 365.085236,758.686340 368.580780,768.574951 
	C369.168793,770.238525 370.072937,773.103699 372.069611,773.773682 
	C379.806244,776.369812 381.378967,784.952026 387.753906,789.221008 
	C392.689636,792.526245 397.491272,797.048340 400.803680,802.509155 
	C403.089203,806.277100 408.415588,806.387634 410.591278,809.909363 
	C414.943024,816.953369 422.017181,820.438416 428.318481,825.062622 
	C433.658081,828.981262 439.947815,830.247131 445.841797,832.571289 
	C452.787659,835.310242 460.217651,836.886902 467.155121,839.411560 
	C472.535126,841.369507 477.262024,842.716797 482.950378,841.999878 
	C487.052826,841.482910 491.485626,844.499695 495.410400,840.862671 
	C495.823151,840.480286 496.796783,840.264587 497.293060,840.477539 
	C503.222717,843.021423 509.435669,841.128662 515.475159,841.739441 
	C524.287292,842.630493 533.012939,840.722229 541.922852,841.323181 
	C547.715027,841.713806 554.666748,841.383911 559.776794,836.668579 
	C561.016418,835.524780 562.599487,835.903076 564.075989,835.845093 
	C570.270020,835.601746 575.322937,832.647095 580.521362,829.577820 
	C584.656616,827.136292 586.024475,821.717773 591.520142,820.791077 
	C602.774536,818.893372 611.047729,812.031189 618.256958,803.629211 
	C621.040527,800.385010 622.970947,796.307434 626.970276,794.223816 
	C633.961792,790.581482 638.855652,785.163269 641.522949,777.704529 
	C643.813843,771.298401 648.846558,767.165527 654.386841,763.956543 
	C657.054016,762.411804 658.881165,760.873596 659.877258,758.052673 
	C660.303894,756.844360 661.035645,755.638977 661.924255,754.716980 
	C665.506836,751.000488 667.728210,746.667542 668.228027,741.520874 
	C668.476257,738.964661 669.383362,736.666077 670.885437,734.667236 
	C676.802551,726.792969 682.827332,718.925049 685.747742,709.380005 
	C687.157288,704.773499 691.323425,701.331482 691.085266,696.162720 
	C690.776489,689.460571 694.118713,683.854919 696.653503,677.161804 
M459.324829,553.824890 
	C459.451050,552.413452 459.950958,551.289246 461.380188,550.687744 
	C468.018066,547.894104 467.975555,540.134460 472.422821,535.673950 
	C472.971893,535.123291 472.760132,533.764465 472.810486,532.775513 
	C472.971008,529.625427 472.762878,526.417664 473.288147,523.332825 
	C474.547791,515.935669 472.600769,508.341522 476.144775,500.946594 
	C478.932220,495.130310 474.294861,489.693878 467.615784,489.137146 
	C465.817139,488.987244 463.801331,489.678436 462.247528,488.496613 
	C456.692810,484.271667 450.228485,484.142029 443.723267,484.187042 
	C441.348267,484.203491 439.285767,483.929932 437.217590,482.370178 
	C434.804352,480.550201 431.544495,479.391602 428.954498,481.624573 
	C424.687622,485.303192 419.453156,485.514709 414.610382,485.498932 
	C402.024139,485.457977 390.609253,491.114960 378.298248,492.124054 
	C372.033264,492.637573 368.541321,497.956482 363.636353,500.833740 
	C359.893127,503.029572 357.955902,505.684540 358.463959,510.469147 
	C358.690613,512.603699 359.733551,514.893555 358.835785,517.260071 
	C356.422089,523.622742 358.850281,529.133789 362.889954,533.737549 
	C365.768036,537.017517 367.086670,540.107361 366.421204,544.470581 
	C365.995911,547.259094 365.304901,551.946716 368.630280,552.356018 
	C377.347656,553.428955 378.945312,563.563843 387.545197,565.383911 
	C393.341583,566.610657 397.994049,572.620483 403.537903,575.836060 
	C409.180603,579.108948 415.036316,582.853088 422.078430,578.703857 
	C423.384064,577.934509 425.343231,577.991821 426.971771,578.100891 
	C435.058441,578.642334 442.821259,578.632019 447.255829,569.978027 
	C447.828186,568.861084 449.338440,568.257690 450.063721,567.180481 
	C452.973236,562.859070 458.264618,560.238281 459.324829,553.824890 
M662.836914,543.747009 
	C663.079407,542.801392 663.025391,541.578918 663.610046,540.952820 
	C669.815735,534.307068 670.371582,526.348511 669.976501,517.777893 
	C669.801941,513.989868 667.497131,510.905273 667.806702,507.186432 
	C668.338989,500.790955 663.325623,494.595825 657.106567,494.871887 
	C652.621948,495.070892 649.247437,493.153656 645.457886,491.457733 
	C638.446899,488.320251 631.348572,485.904816 623.361450,489.329163 
	C620.694702,490.472443 616.223206,490.192108 613.860474,488.625946 
	C610.019165,486.079590 606.658203,486.121155 602.610352,487.031128 
	C599.919739,487.635956 597.186462,488.624481 594.162720,487.797089 
	C592.640503,491.395905 590.850769,494.435608 586.367004,491.682190 
	C586.064880,491.496674 585.397583,491.752716 584.968323,491.951050 
	C580.505371,494.013214 575.727600,494.024811 570.973389,494.067352 
	C565.807617,494.113617 559.532532,499.546692 559.403381,504.745239 
	C559.247070,511.035065 559.748657,517.339905 558.620728,523.593567 
	C558.283630,525.463074 559.391174,527.065430 559.765320,528.760620 
	C560.871094,533.770569 564.383545,537.927246 563.583313,543.750122 
	C562.803040,549.427673 565.691101,555.258057 569.418152,559.085022 
	C573.481812,563.257751 579.481384,565.560364 584.675964,568.612000 
	C589.523682,571.459839 595.476135,570.608093 600.423340,573.743774 
	C609.827637,579.704285 620.125671,574.771057 630.011108,575.223755 
	C630.569336,575.249268 631.235474,574.687988 631.720459,574.253540 
	C634.788269,571.505493 638.784302,570.492126 642.437927,569.210266 
	C651.820923,565.918335 661.867615,554.267517 662.836914,543.747009 
z"/>
<path class="animated-path" fill="#000000" opacity="1.000000" stroke="none" 
	d="
M607.296936,704.273071 
	C606.304016,705.399719 605.565063,706.653625 604.289307,706.358215 
	C598.927185,705.116882 594.879333,708.273376 591.377808,711.092529 
	C586.266113,715.208069 579.761963,717.350586 575.516602,722.678467 
	C574.627686,723.794067 572.825439,724.588928 571.050232,724.590149 
	C570.397156,724.590576 569.362610,724.465515 569.147644,724.805725 
	C565.072388,731.253784 556.964417,729.446045 551.387390,733.490356 
	C547.806335,736.087219 541.530212,736.198730 536.710144,736.563965 
	C528.148254,737.212708 519.445068,740.399231 510.742737,737.187988 
	C509.358643,736.677185 507.886414,735.923950 506.393097,736.627808 
	C501.490784,738.938416 496.685577,737.454346 491.933502,736.225952 
	C489.457397,735.585938 487.160370,734.976929 484.702423,736.218079 
	C483.421234,736.864990 482.110443,736.600281 481.023315,735.550537 
	C480.549500,735.093018 480.010712,734.311218 479.518219,734.324036 
	C473.099670,734.490479 467.690399,730.978577 461.731232,729.480957 
	C454.109802,727.565674 446.294922,725.799683 439.213867,722.551453 
	C433.569244,719.962097 433.195038,713.474976 433.012177,707.737793 
	C432.960175,706.105713 433.445221,704.463379 433.567139,702.817139 
	C433.725800,700.673889 433.441406,697.506409 435.708405,697.266235 
	C438.726105,696.946533 442.594666,696.213745 444.853210,699.354492 
	C446.422974,701.537415 448.099792,702.348267 450.697266,702.089050 
	C455.734283,701.586487 458.638367,705.678101 462.387695,707.885925 
	C466.107330,710.076477 469.282959,710.856689 473.972382,709.480347 
	C478.637573,708.111084 484.241791,711.645203 486.770569,715.240234 
	C490.095947,719.967712 495.210449,717.340088 498.455231,720.254395 
	C502.798096,716.325867 507.299866,719.788391 511.530304,720.349609 
	C520.317017,721.515076 529.205505,720.584412 537.098633,718.064941 
	C542.235962,716.425049 547.932861,714.593872 552.776672,711.818054 
	C555.064209,710.507141 557.454712,710.695679 559.552185,709.472839 
	C566.246338,705.570007 573.428162,702.366821 578.056885,695.670105 
	C579.173889,694.054016 581.006104,693.775330 582.916748,693.567993 
	C589.466309,692.857117 590.988708,690.816406 589.742249,684.522766 
	C589.169250,681.629028 589.515381,679.007385 591.376282,676.539001 
	C592.910217,676.413818 594.535645,676.230164 596.166016,676.156555 
	C604.709290,675.770752 606.578064,677.671692 606.376404,686.338745 
	C606.329041,688.374451 606.777344,690.049500 608.849060,691.332764 
	C611.750854,693.130066 613.748779,695.817383 613.815063,699.881409 
	C611.708862,700.930908 609.439575,702.224609 607.296936,704.273071 
z"/>
<path class="animated-path" fill="#000000" opacity="1.000000" stroke="none" 
	d="
M432.377075,441.224915 
	C424.332367,442.870361 416.595428,441.436493 408.950562,442.223541 
	C407.629486,442.359528 405.819733,441.917328 405.059479,442.625946 
	C401.316986,446.114319 396.822235,446.952240 391.719513,446.765472 
	C387.115265,442.045197 385.061157,442.454803 378.525940,449.980225 
	C374.555481,445.980835 368.838318,445.316040 364.143524,442.526428 
	C362.313049,441.438782 360.625305,440.776031 361.020203,438.213348 
	C361.508392,435.045319 362.842224,431.931976 360.622162,428.708191 
	C359.701965,427.372009 361.546539,426.112976 362.648712,425.821564 
	C367.632477,424.503845 371.980560,420.761932 377.812622,422.469025 
	C380.772980,423.335541 383.443146,420.853455 386.055603,419.598755 
	C388.239319,418.550018 390.463196,417.569458 392.695068,417.888550 
	C399.109131,418.805481 405.543762,417.011078 411.970001,418.475433 
	C415.784149,419.344574 419.473114,417.463165 423.172272,416.591187 
	C426.900513,415.712311 430.562714,414.582397 433.706848,418.099731 
	C434.827911,419.353851 436.548889,418.963898 437.983643,418.660980 
	C445.613434,417.050201 452.727692,420.191711 460.078674,421.060028 
	C463.322937,421.443207 465.753632,424.545410 463.826355,427.128693 
	C459.441864,433.005524 455.846832,440.523010 447.591553,441.764709 
	C442.802429,442.485077 437.747101,441.435974 432.377075,441.224915 
z"/>
<path class="animated-path" fill="#000000" opacity="1.000000" stroke="none" 
	d="
M653.516724,421.872192 
	C657.147705,421.509552 656.733582,423.748016 656.416016,425.753876 
	C656.057251,428.020752 656.109680,430.411133 657.948730,431.749969 
	C661.790955,434.547028 659.741272,437.465424 658.761780,440.559113 
	C657.661926,444.032990 654.904724,444.445129 652.007996,444.389954 
	C648.528503,444.323700 645.050171,443.994080 641.580505,443.678284 
	C638.663208,443.412811 635.862976,442.786743 632.899109,444.114075 
	C630.488464,445.193634 627.678467,444.643738 625.223877,443.748749 
	C619.659485,441.719666 614.295349,441.921722 608.941589,444.412018 
	C605.679382,445.929352 602.206116,446.665894 598.812744,445.113953 
	C590.674683,441.392181 582.548157,443.135345 574.482605,445.062836 
	C570.650208,445.978699 566.832153,447.467529 564.047791,443.544617 
	C561.135254,439.441040 561.141785,434.895233 563.610596,430.501434 
	C566.696045,425.010193 570.042114,423.774170 576.469849,424.144958 
	C581.758484,424.450012 587.009827,423.388550 591.938293,421.180145 
	C595.106140,419.760681 598.191223,419.310089 601.457886,421.259644 
	C603.726868,422.613800 606.241455,422.495331 608.664917,420.239288 
	C610.550842,424.161499 613.771057,423.723114 617.145142,423.400635 
	C624.723816,422.676331 632.322327,422.149963 639.918457,421.625397 
	C641.906006,421.488159 643.932312,421.600861 645.740906,422.639496 
	C648.388000,424.159607 650.833496,423.638885 653.516724,421.872192 
z"/>
<path class="animated-path" fill="#000000" opacity="1.000000" stroke="none" 
	d="
M478.241119,636.783691 
	C470.063995,632.353577 468.774292,628.176025 472.715820,619.528748 
	C474.276123,616.105591 475.198761,612.401855 477.668396,609.384766 
	C478.626160,608.214722 479.354858,606.685120 480.862946,606.412109 
	C485.816223,605.515442 487.543823,601.450073 489.593475,597.766113 
	C492.076996,593.302551 499.978271,589.582642 504.843628,590.917969 
	C507.662018,591.691528 510.253052,593.024597 510.944550,596.171204 
	C511.888092,600.464478 511.218597,604.761963 507.919342,607.676331 
	C503.402100,611.666565 502.907227,617.254395 502.823700,622.108582 
	C502.720306,628.118286 502.181274,634.579285 505.929474,640.341858 
	C507.916046,643.395996 506.974396,646.805420 503.010040,648.434143 
	C502.704285,648.559753 502.261963,648.645569 502.139648,648.882385 
	C498.226013,656.459717 494.609497,651.979248 490.887756,648.673828 
	C489.911957,647.807251 488.716553,646.647644 487.577393,646.595398 
	C481.396820,646.311951 479.600647,642.067810 478.241119,636.783691 
z"/>
<path class="animated-path" fill="#000000" opacity="1.000000" stroke="none" 
	d="
M417.122192,509.940613 
	C421.395630,509.300751 424.860657,511.685547 428.686554,511.382141 
	C429.216583,511.340088 430.075378,511.902588 430.324585,512.409912 
	C432.716980,517.280334 438.042847,520.158081 439.090332,526.012207 
	C440.866821,535.940308 431.182800,546.626526 421.250488,545.857788 
	C417.930511,545.600891 415.368652,545.712402 412.058014,543.498779 
	C404.257996,538.283508 404.202087,530.729492 403.794373,523.184692 
	C403.588013,519.366821 413.300079,510.141876 417.122192,509.940613 
z"/>
<path class="animated-path" fill="#000000" opacity="1.000000" stroke="none" 
	d="
M627.491638,539.436218 
	C624.583069,543.987549 621.137817,544.856567 615.807373,545.159180 
	C609.672974,545.507446 605.774597,542.727295 603.556702,539.175598 
	C601.221191,535.435547 599.553162,530.690125 600.252625,525.235657 
	C600.935730,519.907654 604.052124,516.257507 606.013855,511.849945 
	C607.032898,509.560333 608.880798,508.706146 611.759094,509.320038 
	C615.863770,510.195496 620.315002,509.689362 624.287598,510.878113 
	C629.007202,512.290405 635.297791,524.447815 634.153076,529.310791 
	C633.227661,533.242065 629.501038,535.619995 627.491638,539.436218 
z"/>
</svg>